<svg width="22" height="23" viewBox="0 0 22 23" fill="none" xmlns="http://www.w3.org/2000/svg">
<path d="M20.0417 12.8333H12.3333V20.5417C12.3333 20.9505 12.1709 21.3427 11.8818 21.6318C11.5927 21.9209 11.2005 22.0833 10.7917 22.0833C10.3828 22.0833 9.99066 21.9209 9.70154 21.6318C9.41243 21.3427 9.25 20.9505 9.25 20.5417V12.8333H1.54167C1.13279 12.8333 0.740663 12.6709 0.451544 12.3818C0.162425 12.0927 0 11.7005 0 11.2917C0 10.8828 0.162425 10.4907 0.451544 10.2015C0.740663 9.91243 1.13279 9.75 1.54167 9.75H9.25V2.04167C9.25 1.63279 9.41243 1.24066 9.70154 0.951543C9.99066 0.662425 10.3828 0.5 10.7917 0.5C11.2005 0.5 11.5927 0.662425 11.8818 0.951543C12.1709 1.24066 12.3333 1.63279 12.3333 2.04167V9.75H20.0417C20.4505 9.75 20.8427 9.91243 21.1318 10.2015C21.4209 10.4907 21.5833 10.8828 21.5833 11.2917C21.5833 11.7005 21.4209 12.0927 21.1318 12.3818C20.8427 12.6709 20.4505 12.8333 20.0417 12.8333Z" fill="black"/>
</svg>
